<svg width="57" height="55" viewBox="0 0 57 55" fill="none" xmlns="http://www.w3.org/2000/svg">
<rect width="56.5988" height="55" rx="15" fill="white" fill-opacity="0.2"/>
<path fill-rule="evenodd" clip-rule="evenodd" d="M36.4886 34.0983C40.6344 34.0983 43.9953 30.7835 43.9953 26.6944C43.9953 22.6054 40.6344 19.2906 36.4886 19.2906C34.2585 19.2906 32.255 20.2487 30.8781 21.7753C30.8386 21.8369 30.7944 21.8966 30.7457 21.954L30.4139 22.344C30.3867 22.3808 30.351 22.4117 30.3245 22.449L24.2856 29.5473C23.6934 30.2434 22.6412 30.3342 21.9354 29.7501C21.2297 29.166 21.1376 28.1283 21.7298 27.4322L27.5039 20.6451C26.2801 19.7911 24.7875 19.2906 23.1745 19.2906C19.0287 19.2906 15.6678 22.6054 15.6678 26.6944C15.6678 30.7835 19.0287 34.0983 23.1745 34.0983C25.4047 34.0983 27.4082 33.1402 28.785 31.6136C28.8246 31.552 28.8687 31.4923 28.9176 31.4349L29.2494 31.0449C29.2766 31.0081 29.3121 30.9772 29.3386 30.9399L35.3776 23.8416C35.9698 23.1455 37.0219 23.0547 37.7277 23.6388C38.4335 24.2229 38.5256 25.2606 37.9334 25.9567L32.1593 32.7439C33.383 33.5978 34.8757 34.0983 36.4886 34.0983ZM29.8315 35.1363C31.6682 36.547 33.9797 37.3889 36.4886 37.3889C42.4771 37.3889 47.3315 32.6009 47.3315 26.6944C47.3315 20.7881 42.4771 16 36.4886 16C33.9787 16 31.6683 16.8418 29.8317 18.2525C27.9949 16.8419 25.6834 16 23.1745 16C17.1861 16 12.3315 20.7881 12.3315 26.6944C12.3315 32.6009 17.1861 37.3889 23.1745 37.3889C25.6844 37.3889 27.9949 36.547 29.8315 35.1363Z" fill="white"/>
</svg>
