<svg width="760" height="194" viewBox="0 0 760 194" fill="none" xmlns="http://www.w3.org/2000/svg">
<line x1="759.014" y1="191.703" x2="0.999939" y2="191.703" stroke="#1D1E2C"/>
<line x1="759.014" y1="144.152" x2="0.999939" y2="144.152" stroke="#1D1E2C" stroke-dasharray="2 2"/>
<line x1="759.014" y1="96.6014" x2="0.999939" y2="96.6014" stroke="#1D1E2C" stroke-dasharray="2 2"/>
<line x1="759.014" y1="49.0507" x2="0.999939" y2="49.0506" stroke="#1D1E2C" stroke-dasharray="2 2"/>
<line x1="759.014" y1="1.5" x2="0.999939" y2="1.49993" stroke="#1D1E2C" stroke-dasharray="2 2"/>
<path d="M1.25407 194L1 1.23521C1 1.23521 24.5649 -4.19578 44.3823 37.1362C64.1996 78.4681 71.6311 87.9194 91.9566 90.3175C112.282 92.7156 119.714 86.0856 136.419 73.1782C153.124 60.2708 182.532 65.9133 194.855 81.2188C207.177 96.5244 208.638 105.835 218.419 116.908C228.201 127.982 235.315 136.022 249.479 128.193C263.644 120.364 265.105 103.225 275.077 76.9869C285.049 50.7489 293.941 32.8337 310.265 30.6472C326.589 28.4607 334.974 40.7333 348.376 59.636C361.778 78.6091 371.941 90.6702 390.678 96.1012C409.352 101.532 428.217 93.0683 439.142 84.6044C450.003 76.1405 471.79 56.1799 495.609 70.9211C519.427 85.6624 515.235 110.419 533.528 121.493C551.885 132.566 565.859 132.566 573.798 122.692C581.801 112.817 583.961 106.187 590.122 86.6498C596.283 67.1124 609.876 49.7614 630.392 54.6282C650.908 59.4949 654.91 77.8333 658.911 96.5243C662.913 115.286 667.423 136.022 683.429 145.474C699.435 154.925 714.806 158.17 731.702 151.328C748.598 144.486 759.014 138.844 759.014 138.844V193.929" fill="url(#paint0_linear_2_189)"/>
<path d="M1.25407 194L1 1.23521C1 1.23521 24.5649 -4.19578 44.3823 37.1362C64.1996 78.4681 71.6311 87.9194 91.9566 90.3175C112.282 92.7156 119.714 86.0856 136.419 73.1782C153.124 60.2708 182.532 65.9133 194.855 81.2188C207.177 96.5244 208.638 105.835 218.419 116.908C228.201 127.982 235.315 136.022 249.479 128.193C263.644 120.364 265.105 103.225 275.077 76.9869C285.049 50.7489 293.941 32.8337 310.265 30.6472C326.589 28.4607 334.974 40.7333 348.376 59.636C361.778 78.6091 371.941 90.6702 390.678 96.1012C409.352 101.532 428.217 93.0683 439.142 84.6044C450.003 76.1405 471.79 56.1799 495.609 70.9211C519.427 85.6624 515.235 110.419 533.528 121.493C551.885 132.566 565.859 132.566 573.798 122.692C581.801 112.817 583.961 106.187 590.122 86.6498C596.283 67.1124 609.876 49.7614 630.392 54.6282C650.908 59.4949 654.91 77.8333 658.911 96.5243C662.913 115.286 667.423 136.022 683.429 145.474C699.435 154.925 714.806 158.17 731.702 151.328C748.598 144.486 759.014 138.844 759.014 138.844V193.929" stroke="#894BA9" stroke-miterlimit="10"/>
<path d="M1 193.92V138.111C1 138.111 38.7419 158.311 62.9501 149.369C87.1582 140.427 93.7027 129.489 99.7389 98.3508C105.775 67.213 129.157 44.9374 145.487 54.5183C161.816 64.0992 166.2 85.9755 178.463 109.289C190.726 132.602 202.989 132.203 217.158 128.131C231.327 124.06 237.554 110.008 243.018 99.0694C248.482 88.1312 261.254 64.179 286.606 65.8557C311.957 67.5323 320.09 90.5264 341.312 94.279C362.534 98.0315 377.529 100.746 393.604 79.5883C409.68 58.4305 435.794 18.9892 458.414 33.7597C481.033 48.4504 487.832 93.6402 495.965 108.73C504.161 123.82 520.173 142.982 536.248 123.101C552.324 103.221 567.827 60.1071 606.204 68.0114C644.582 75.9156 633.462 96.8339 664.215 91.1652C694.968 85.4965 700.432 71.7639 713.521 43.4204C726.61 15.077 739.635 0.306459 759.014 1.02503V194" fill="url(#paint1_linear_2_189)"/>
<path d="M1 193.92V138.111C1 138.111 38.7419 158.311 62.9501 149.369C87.1582 140.427 93.7027 129.489 99.7389 98.3508C105.775 67.213 129.157 44.9374 145.487 54.5183C161.816 64.0992 166.2 85.9755 178.463 109.289C190.726 132.603 202.989 132.203 217.158 128.131C231.327 124.06 237.554 110.008 243.018 99.0694C248.483 88.1312 261.254 64.179 286.606 65.8557C311.957 67.5323 320.09 90.5264 341.312 94.279C362.534 98.0315 377.529 100.746 393.604 79.5883C409.68 58.4305 435.794 18.9892 458.414 33.7597C481.033 48.4504 487.832 93.6402 495.965 108.73C504.161 123.82 520.173 142.982 536.248 123.101C552.324 103.221 567.827 60.1071 606.204 68.0114C644.582 75.9156 633.462 96.8339 664.215 91.1652C694.968 85.4965 700.432 71.7639 713.521 43.4204C726.61 15.077 739.635 0.306459 759.014 1.02503V194" stroke="#E03A45" stroke-miterlimit="10"/>
<defs>
<linearGradient id="paint0_linear_2_189" x1="380.007" y1="25.2191" x2="380.007" y2="194" gradientUnits="userSpaceOnUse">
<stop stop-color="white"/>
<stop offset="1" stop-color="#7B4397" stop-opacity="0"/>
</linearGradient>
<linearGradient id="paint1_linear_2_189" x1="380.231" y1="14.5837" x2="379.881" y2="194" gradientUnits="userSpaceOnUse">
<stop stop-color="#FAFF00"/>
<stop offset="1" stop-color="#DC2430" stop-opacity="0"/>
</linearGradient>
</defs>
</svg>
