<svg width="58" height="55" viewBox="0 0 58 55" fill="none" xmlns="http://www.w3.org/2000/svg">
<rect x="0.697632" width="56.5988" height="55" rx="15" fill="#87C5FF" fill-opacity="0.2"/>
<path d="M38.6174 20.6172C38.9381 18.5852 38.6174 17.2305 37.4948 15.98C36.2654 14.5731 34.0203 14 31.1337 14H22.8483C22.2603 14 21.7792 14.4168 21.6723 14.99L18.1977 36.3527C18.1443 36.7695 18.465 37.1343 18.8926 37.1343H24.0243L23.6501 39.3226C23.5966 39.6874 23.8639 40 24.2915 40H28.6214C29.1559 40 29.5835 39.6353 29.637 39.1663L30.5457 33.6433C30.5992 33.1743 31.0803 32.8096 31.5614 32.8096H32.2028C36.3723 32.8096 39.6865 31.1423 40.6486 26.3487C41.0228 24.3687 40.8625 22.6493 39.7934 21.503C39.4726 21.1383 39.0985 20.8778 38.6174 20.6172" fill="white" fill-opacity="0.3"/>
<path d="M38.6174 20.6172C38.9381 18.5852 38.6174 17.2305 37.4948 15.98C36.2654 14.5731 34.0203 14 31.1337 14H22.8483C22.2603 14 21.7792 14.4168 21.6723 14.99L18.1977 36.3527C18.1443 36.7695 18.465 37.1343 18.8926 37.1343H24.0243L25.2537 29.4228C25.3606 28.8497 25.8417 28.4329 26.4297 28.4329H28.8886C33.6995 28.4329 37.4414 26.5571 38.5105 21.0341C38.5639 20.9299 38.5639 20.7735 38.6174 20.6172Z" fill="white" fill-opacity="0.29"/>
<path d="M26.697 20.6693C26.7505 20.3046 27.2315 19.8357 27.7126 19.8357H34.2341C34.9825 19.8357 35.7308 19.8878 36.3723 19.992C36.9603 20.0962 38.0294 20.3567 38.5639 20.6693C38.8846 18.6373 38.5639 17.2826 37.4414 16.0321C36.2654 14.5731 34.0203 14 31.1337 14H22.8483C22.2603 14 21.7792 14.4168 21.6723 14.99L18.1977 36.3527C18.1443 36.7695 18.465 37.1343 18.8926 37.1343H24.0243L26.697 20.6693V20.6693Z" fill="white"/>
</svg>
