<svg width="58" height="55" viewBox="0 0 58 55" fill="none" xmlns="http://www.w3.org/2000/svg">
<rect x="0.668579" width="56.5988" height="55" rx="15" fill="#87C5FF" fill-opacity="0.2"/>
<path fill-rule="evenodd" clip-rule="evenodd" d="M26.572 21.7429C26.572 20.6286 27.5055 20.2 29.0515 20.2C31.2685 20.2 34.0688 20.8571 36.2858 22.0286V15.3143C33.8646 14.3714 31.4727 14 29.0515 14C23.1299 14 19.1919 17.0286 19.1919 22.0857C19.1919 29.9714 30.2767 28.7143 30.2767 32.1143C30.2767 33.4286 29.1099 33.8571 27.4763 33.8571C25.0552 33.8571 21.9631 32.8857 19.5128 31.5714V38.3714C22.2256 39.5143 24.9677 40 27.4763 40C33.5438 40 37.7152 37.0571 37.7152 31.9429C37.686 23.4286 26.572 24.9429 26.572 21.7429Z" fill="white"/>
</svg>
