<svg width="49" height="49" viewBox="0 0 49 49" fill="none" xmlns="http://www.w3.org/2000/svg">
<path d="M4.7959 21.487C4.59689 20.7445 4.59686 19.9627 4.79582 19.2201C4.99477 18.4776 5.3857 17.8005 5.9293 17.257L17.2567 5.92956C17.8002 5.38596 18.4773 4.99503 19.2199 4.79607C19.9624 4.59712 20.7442 4.59714 21.4868 4.79615L32.0864 7.63631C32.1967 6.1842 32.7023 4.78994 33.5483 3.60454L20.7818 0.184126C19.8655 -0.0613806 18.9007 -0.0613756 17.9844 0.184142C17.068 0.429661 16.2325 0.912044 15.5616 1.58281L1.58281 15.5616C0.912039 16.2325 0.429659 17.068 0.184142 17.9844C-0.0613755 18.9007 -0.0613808 19.8655 0.184126 20.7818L3.73612 34.0379C4.89727 33.1512 6.27971 32.6004 7.73254 32.446L4.7959 21.487Z" fill="#18CDCA"/>
<path d="M41.1694 16.1871L44.2041 27.5123C44.4032 28.255 44.4029 29.0367 44.2041 29.7791C44.005 30.5218 43.614 31.1988 43.0704 31.7424L31.743 43.0701C31.1994 43.6136 30.5224 44.0044 29.7798 44.2035C29.0374 44.4023 28.2554 44.4023 27.5129 44.2035L16.554 41.2668C16.3996 42.7197 15.8489 44.1022 14.962 45.2632L28.2181 48.8152C29.1344 49.0608 30.0993 49.0608 31.0155 48.8152C31.932 48.5696 32.7674 48.0874 33.4383 47.4165L47.4172 33.4377C48.0881 32.7668 48.5702 31.9314 48.8158 31.0149C49.0615 30.0986 49.0615 29.1338 48.8158 28.2175L45.1299 14.4651C43.9933 15.3928 42.6228 15.9887 41.1694 16.1871Z" fill="#18CDCA"/>
<path d="M4.05488 35.8661C3.15712 36.7638 2.54573 37.9078 2.29803 39.1529C2.05034 40.3982 2.17746 41.6889 2.66333 42.8619C3.14917 44.0347 3.97195 45.0373 5.02758 45.7428C6.08324 46.448 7.32432 46.8246 8.59395 46.8246C9.86355 46.8246 11.1047 46.448 12.1603 45.7428C13.216 45.0373 14.0387 44.0347 14.5246 42.8619C15.0104 41.6889 15.1376 40.3982 14.8898 39.1529C14.6422 37.9078 14.0308 36.7638 13.133 35.8661C11.9282 34.6642 10.2958 33.989 8.59395 33.989C6.89206 33.989 5.25966 34.6642 4.05488 35.8661Z" fill="#4F80E1"/>
<path d="M35.5342 3.72389C34.6365 4.62163 34.0249 5.76543 33.7774 7.01066C33.5297 8.25586 33.6568 9.54657 34.1427 10.7196C34.6286 11.8925 35.4512 12.8951 36.5068 13.6004C37.5625 14.3058 38.8036 14.6823 40.0731 14.6823C41.3429 14.6823 42.5839 14.3058 43.6397 13.6004C44.6952 12.8951 45.5179 11.8925 46.0038 10.7196C46.4897 9.54657 46.6168 8.25586 46.369 7.01066C46.1216 5.76543 45.5099 4.62163 44.6123 3.72389C43.4077 2.52183 41.7751 1.84674 40.0731 1.84674C38.3714 1.84674 36.7388 2.52183 35.5342 3.72389Z" fill="#4F80E1"/>
<path d="M28.2678 41.5156C28.01 41.5156 27.7535 41.4819 27.5044 41.4152L17.4729 38.7271C17.1384 36.9408 16.2718 35.2973 14.9868 34.0124C13.7018 32.7275 12.0584 31.8607 10.2721 31.5263L7.58427 21.4955C7.45103 20.9952 7.4514 20.4687 7.58542 19.9685C7.71944 19.4684 7.98237 19.0122 8.34794 18.6455L18.6443 8.34894C19.0105 7.98266 19.4667 7.71927 19.9671 7.5852C20.4674 7.45115 20.9942 7.45118 21.4945 7.58528L31.2449 10.1979C31.6316 11.9731 32.5455 13.59 33.8668 14.837C35.1881 16.084 36.8553 16.9028 38.6498 17.1863L41.4142 27.5054C41.5473 28.006 41.5471 28.5325 41.4128 29.0325C41.2789 29.5328 41.016 29.9889 40.6502 30.3557L30.3539 40.652C30.0807 40.9266 29.7553 41.1446 29.3973 41.2926C29.0392 41.441 28.6554 41.5167 28.2678 41.5156Z" fill="#4F80E1"/>
</svg>
