<svg width="37" height="39" viewBox="0 0 37 39" fill="none" xmlns="http://www.w3.org/2000/svg">
<path d="M14.355 38.785C12.373 38.785 10.7663 37.3567 10.7663 35.5949H17.9438C17.9438 37.3567 16.337 38.785 14.355 38.785ZM28.71 33.9999H0V30.8099L3.58875 29.2149V20.4424C3.58875 14.9206 6.13856 11.3398 10.7663 10.362V6.88495H16.1494C14.9794 8.26293 14.3491 9.94355 14.355 11.6699C14.3549 12.0709 14.3885 12.4713 14.4555 12.8678H14.355C12.1656 12.7417 10.0539 13.6121 8.74758 15.1789C7.63066 16.7493 7.08265 18.5865 7.1775 20.4424V30.8099H21.5325V20.4424C21.5325 20.1059 21.5199 19.7821 21.4948 19.4854C22.6817 19.7034 23.9058 19.7072 25.0943 19.4966C25.1141 19.8332 25.1213 20.1538 25.1213 20.4536V29.2149L28.71 30.8099V33.9999Z" fill="#495275"/>
<circle cx="24.5" cy="12.5" r="12.5" fill="#F19CFF"/>
<path d="M23.995 18.1591C26.62 18.1591 28.5064 16.7557 28.5121 14.8693C28.5064 13.4148 27.3871 12.2273 25.9893 11.9943V11.9148C27.2053 11.6648 28.0746 10.6136 28.0803 9.33523C28.0746 7.53409 26.3473 6.20455 23.995 6.20455C21.6371 6.20455 19.9098 7.53409 19.9155 9.33523C19.9098 10.608 20.7678 11.6648 22.0064 11.9148V11.9943C20.5859 12.2273 19.478 13.4148 19.4837 14.8693C19.478 16.7557 21.37 18.1591 23.995 18.1591ZM23.995 16.3523C22.8246 16.3523 22.0405 15.6591 22.0405 14.6761C22.0405 13.6705 22.8643 12.9432 23.995 12.9432C25.12 12.9432 25.9496 13.6705 25.9496 14.6761C25.9496 15.6648 25.1598 16.3523 23.995 16.3523ZM23.995 11.1534C23.0121 11.1534 22.3132 10.5114 22.3132 9.59091C22.3132 8.68182 23.0007 8.05682 23.995 8.05682C24.9837 8.05682 25.6768 8.6875 25.6768 9.59091C25.6768 10.5114 24.9723 11.1534 23.995 11.1534Z" fill="#001224"/>
</svg>
