<svg width="28" height="22" viewBox="0 0 28 22" fill="none" xmlns="http://www.w3.org/2000/svg">
<path d="M8.4 22C5.84536 22.0013 3.61366 20.3044 2.975 17.8751H0V15.1252H2.9764C3.70389 12.358 6.46816 10.5992 9.33699 11.0781C12.2058 11.557 14.2231 14.1141 13.9788 16.9619C13.7345 19.8098 11.31 21.9993 8.4 22ZM8.4 13.7503C6.87035 13.7518 5.62504 14.9586 5.60312 16.4608C5.58121 17.9629 6.79079 19.2043 8.31977 19.2489C9.84874 19.2934 11.1312 18.1247 11.2 16.6239V17.1739V16.5002C11.2 14.9814 9.9464 13.7503 8.4 13.7503ZM28 17.8751H15.4V15.1252H28V17.8751ZM15.4 11.0003C12.8459 11.001 10.6149 9.30425 9.9764 6.87547H0V4.12555H9.9764C10.7039 1.35837 13.4682 -0.400467 16.337 0.0784488C19.2058 0.557364 21.2231 3.11443 20.9788 5.96227C20.7345 8.8101 18.31 10.9996 15.4 11.0003ZM15.4 2.75059C13.8704 2.75212 12.625 3.95897 12.6031 5.4611C12.5812 6.96323 13.7908 8.20464 15.3198 8.24921C16.8487 8.29378 18.1312 7.12502 18.2 5.62425V6.17424V5.50051C18.2 3.98177 16.9464 2.75059 15.4 2.75059ZM28 6.87547H22.4V4.12555H28V6.87547Z" fill="#495275"/>
</svg>
