<svg width="17" height="17" viewBox="0 0 17 17" fill="none" xmlns="http://www.w3.org/2000/svg">
<path fill-rule="evenodd" clip-rule="evenodd" d="M13.4999 1C14.8806 1 15.9999 2.11929 15.9999 3.5C15.9999 4.88071 14.8806 6 13.4999 6C12.1192 6 10.9999 4.88071 10.9999 3.5C10.9999 2.11929 12.1192 1 13.4999 1Z" fill="white" stroke="white" stroke-width="1.8" stroke-linecap="round" stroke-linejoin="round"/>
<path fill-rule="evenodd" clip-rule="evenodd" d="M13.4999 11C14.8806 11 15.9999 12.1193 15.9999 13.5C15.9999 14.8807 14.8806 16 13.4999 16C12.1192 16 10.9999 14.8807 10.9999 13.5C10.9999 12.1193 12.1192 11 13.4999 11Z" fill="white" stroke="white" stroke-width="1.8" stroke-linecap="round" stroke-linejoin="round"/>
<path fill-rule="evenodd" clip-rule="evenodd" d="M3.49988 1C4.88059 1 5.99988 2.11929 5.99988 3.5C5.99988 4.88071 4.88059 6 3.49988 6C2.11917 6 0.999878 4.88071 0.999878 3.5C0.999878 2.11929 2.11917 1 3.49988 1Z" fill="white" stroke="white" stroke-width="1.8" stroke-linecap="round" stroke-linejoin="round"/>
<path fill-rule="evenodd" clip-rule="evenodd" d="M3.49988 11C4.88059 11 5.99988 12.1193 5.99988 13.5C5.99988 14.8807 4.88059 16 3.49988 16C2.11917 16 0.999878 14.8807 0.999878 13.5C0.999878 12.1193 2.11917 11 3.49988 11Z" fill="white" stroke="white" stroke-width="1.8" stroke-linecap="round" stroke-linejoin="round"/>
</svg>
