<svg width="17" height="17" viewBox="0 0 17 17" fill="none" xmlns="http://www.w3.org/2000/svg">
<path fill-rule="evenodd" clip-rule="evenodd" d="M2.67465 3.50006H15.9999L14.9396 9.47899C14.869 9.8769 14.5232 10.1668 14.119 10.1668H3.5007C3.07333 10.1668 2.7211 9.84512 2.67296 9.43067L2.66736 9.33244V9.33244L2.67465 3.50006Z" stroke="white" stroke-width="1.8" stroke-linecap="round" stroke-linejoin="round"/>
<path d="M1 1H2.6584L2.66669 4.33338" stroke="white" stroke-width="1.8" stroke-linecap="round" stroke-linejoin="round"/>
<path fill-rule="evenodd" clip-rule="evenodd" d="M10.5834 14.3336C10.5834 13.4131 11.3296 12.6669 12.25 12.6669C13.1705 12.6669 13.9167 13.4131 13.9167 14.3336C13.9167 15.2541 13.1705 16.0003 12.25 16.0003C11.3578 16.0003 10.6273 15.2149 10.5834 14.3336Z" stroke="white" stroke-width="1.8" stroke-linecap="round" stroke-linejoin="round"/>
<path fill-rule="evenodd" clip-rule="evenodd" d="M4.74991 16.0003C3.82944 16.0003 3.08325 15.2541 3.08325 14.3336C3.08325 13.4131 3.82944 12.6669 4.74991 12.6669C5.67038 12.6669 6.41657 13.4131 6.41657 14.3336C6.41657 15.2541 5.67038 16.0003 4.74991 16.0003Z" stroke="white" stroke-width="1.8" stroke-linecap="round" stroke-linejoin="round"/>
<path d="M4.75029 10.1667V12.6668" stroke="white" stroke-width="1.8" stroke-linecap="round" stroke-linejoin="round"/>
<path d="M10.1666 14.3335H6.83325" stroke="white" stroke-width="1.8" stroke-linecap="round" stroke-linejoin="round"/>
</svg>
