<svg width="24" height="25" viewBox="0 0 24 25" fill="none" xmlns="http://www.w3.org/2000/svg">
<circle cx="12.1333" cy="12.3318" r="11.8672" fill="#424D6C"/>
<path d="M12.4163 18.2652C14.6428 18.2652 16.2781 16.9336 16.2728 15.1225C16.2781 13.7429 15.4418 12.7521 13.993 12.5284V12.4431C15.1329 12.1502 15.8733 11.2553 15.868 10.0302C15.8733 8.42681 14.5576 7.05785 12.4589 7.05785C10.456 7.05785 8.84738 8.26701 8.79411 10.0408H10.3868C10.4241 9.03938 11.3669 8.43214 12.4376 8.43214C13.5509 8.43214 14.2806 9.10863 14.2753 10.1154C14.2806 11.1701 13.4337 11.8625 12.2245 11.8625H11.303V13.2049H12.2245C13.7373 13.2049 14.6109 13.9719 14.6109 15.0692C14.6109 16.1292 13.6894 16.8483 12.4056 16.8483C11.2231 16.8483 10.3016 16.2411 10.2376 15.2716H8.56506C8.63431 17.0507 10.211 18.2652 12.4163 18.2652Z" fill="#BDFFE7"/>
</svg>
