<svg width="176" height="186" viewBox="0 0 176 186" fill="none" xmlns="http://www.w3.org/2000/svg">
<path fill-rule="evenodd" clip-rule="evenodd" d="M84.05 30C75.2632 30 68.14 37.1232 68.14 45.91V99.23C68.14 101.605 66.2149 103.53 63.84 103.53C61.4652 103.53 59.54 101.605 59.54 99.23V45.91C59.54 32.3735 70.5135 21.4 84.05 21.4C97.5865 21.4 108.56 32.3735 108.56 45.91V48.0666C108.56 50.4414 106.635 52.3666 104.26 52.3666C101.885 52.3666 99.96 50.4414 99.96 48.0666V45.91C99.96 37.1232 92.8369 30 84.05 30Z" fill="url(#paint0_linear_2_56)"/>
<mask id="mask0_2_56" style="mask-type:alpha" maskUnits="userSpaceOnUse" x="59" y="21" width="50" height="83">
<path fill-rule="evenodd" clip-rule="evenodd" d="M84.05 30C75.2632 30 68.14 37.1232 68.14 45.91V99.23C68.14 101.605 66.2149 103.53 63.84 103.53C61.4652 103.53 59.54 101.605 59.54 99.23V45.91C59.54 32.3735 70.5135 21.4 84.05 21.4C97.5865 21.4 108.56 32.3735 108.56 45.91V48.0666C108.56 50.4414 106.635 52.3666 104.26 52.3666C101.885 52.3666 99.96 50.4414 99.96 48.0666V45.91C99.96 37.1232 92.8369 30 84.05 30Z" fill="#FF4D4D"/>
</mask>
<g mask="url(#mask0_2_56)">
<path d="M69.0076 37.3101C69.0076 29.06 77.4903 22.2766 88.3515 21.4786C89.5357 21.3916 90.5 20.4375 90.5 19.2501V14.9501C90.5 13.7627 89.5348 12.7947 88.3488 12.851C71.0652 13.6715 57.39 24.3086 57.39 37.3101V90.6301C57.39 93.0049 59.9907 94.9301 63.1988 94.9301C66.4069 94.9301 69.0076 93.0049 69.0076 90.6301V37.3101Z" fill="url(#paint1_linear_2_56)"/>
</g>
<path d="M127.48 114.065C127.48 137.932 108.132 157.28 84.2648 157.28C60.3978 157.28 41.0498 137.932 41.0498 114.065C41.0498 90.198 60.3978 70.85 84.2648 70.85C108.132 70.85 127.48 90.198 127.48 114.065Z" fill="url(#paint2_linear_2_56)"/>
<mask id="mask1_2_56" style="mask-type:alpha" maskUnits="userSpaceOnUse" x="41" y="70" width="87" height="88">
<path d="M127.48 114.065C127.48 137.932 108.132 157.28 84.2648 157.28C60.3978 157.28 41.0498 137.932 41.0498 114.065C41.0498 90.198 60.3978 70.85 84.2648 70.85C108.132 70.85 127.48 90.198 127.48 114.065Z" fill="url(#paint3_linear_2_56)"/>
</mask>
<g mask="url(#mask1_2_56)">
<path d="M129.2 112.775C129.2 136.642 109.852 155.99 85.9848 155.99C62.1178 155.99 42.7698 136.642 42.7698 112.775C42.7698 88.908 62.1178 69.5599 85.9848 69.5599C109.852 69.5599 129.2 88.908 129.2 112.775Z" fill="#FF4343"/>
<path d="M132.21 111.485C132.21 135.352 112.862 154.7 88.9948 154.7C65.1278 154.7 45.7798 135.352 45.7798 111.485C45.7798 87.618 65.1278 68.27 88.9948 68.27C112.862 68.27 132.21 87.618 132.21 111.485Z" fill="url(#paint4_linear_2_56)"/>
</g>
<path d="M91.2738 115.036C91.2738 114.239 91.7235 113.52 92.3845 113.076C95.6568 110.874 97.8098 107.135 97.8098 102.893C97.8098 96.1201 92.3231 90.63 85.5548 90.63C78.7866 90.63 73.2998 96.1201 73.2998 102.893C73.2998 106.937 75.2567 110.524 78.2749 112.758C78.8837 113.208 79.2911 113.898 79.2911 114.656V135.35C79.2911 136.537 80.2537 137.5 81.4411 137.5H89.1238C90.3112 137.5 91.2738 136.537 91.2738 135.35V115.036Z" fill="url(#paint5_linear_2_56)"/>
<g filter="url(#filter0_b_2_56)">
<path d="M101.25 116.43C101.25 111.68 105.1 107.83 109.85 107.83H152.85C157.6 107.83 161.45 111.68 161.45 116.43V159.43C161.45 164.18 157.6 168.03 152.85 168.03H109.85C105.1 168.03 101.25 164.18 101.25 159.43V116.43Z" fill="#B9CDFF" fill-opacity="0.5"/>
</g>
<path d="M130.579 117.993C130.894 117.354 131.805 117.354 132.121 117.993L137.468 128.828C137.594 129.082 137.836 129.257 138.116 129.298L150.073 131.036C150.778 131.138 151.06 132.005 150.55 132.503L141.897 140.936C141.695 141.134 141.602 141.419 141.65 141.698L143.693 153.607C143.813 154.309 143.076 154.845 142.445 154.513L131.75 148.891C131.499 148.759 131.2 148.759 130.95 148.891L120.255 154.513C119.624 154.845 118.886 154.309 119.007 153.607L121.049 141.698C121.097 141.419 121.005 141.134 120.802 140.936L112.15 132.503C111.639 132.005 111.921 131.138 112.626 131.036L124.584 129.298C124.864 129.257 125.106 129.082 125.231 128.828L130.579 117.993Z" fill="#FE4D58"/>
<path fill-rule="evenodd" clip-rule="evenodd" d="M132.513 49.8797C132.761 49.4525 133.379 49.4525 133.627 49.8797L134.551 51.4647C134.581 51.5169 134.632 51.5538 134.691 51.5666L136.483 51.9548C136.967 52.0594 137.157 52.6463 136.828 53.015L135.606 54.3827C135.566 54.4278 135.546 54.4876 135.552 54.5477L135.737 56.3726C135.787 56.8644 135.288 57.2271 134.835 57.0278L133.157 56.2881C133.101 56.2638 133.039 56.2638 132.983 56.2881L131.305 57.0278C130.852 57.2271 130.353 56.8644 130.403 56.3726L130.588 54.5477C130.594 54.4876 130.574 54.4278 130.534 54.3827L129.312 53.015C128.983 52.6463 129.173 52.0594 129.656 51.9548L131.449 51.5666C131.508 51.5538 131.559 51.5169 131.589 51.4647L132.513 49.8797ZM133.256 50.0961C133.173 49.9537 132.967 49.9537 132.884 50.0961L131.961 51.6811C131.87 51.8376 131.717 51.9485 131.54 51.9869L129.747 52.3751C129.586 52.4099 129.523 52.6056 129.633 52.7285L130.855 54.0962C130.975 54.2313 131.034 54.4108 131.016 54.591L130.831 56.4159C130.814 56.5798 130.981 56.7007 131.131 56.6343L132.81 55.8946C132.976 55.8216 133.164 55.8216 133.33 55.8946L135.009 56.6343C135.159 56.7007 135.326 56.5798 135.309 56.4159L135.124 54.591C135.106 54.4108 135.165 54.2313 135.285 54.0962L136.507 52.7285C136.617 52.6056 136.554 52.4099 136.392 52.3751L134.6 51.9869C134.423 51.9485 134.27 51.8376 134.179 51.6811L133.256 50.0961Z" fill="#D14EFF"/>
<path opacity="0.796364" fill-rule="evenodd" clip-rule="evenodd" d="M34.3971 14.9558C34.537 15.43 34.1133 15.8787 33.6319 15.7664L29.6938 14.8477C29.6351 14.8339 29.5732 14.8456 29.5234 14.8797L26.188 17.1661C25.7803 17.4456 25.2226 17.1814 25.1807 16.6888L24.8375 12.6596C24.8324 12.5994 24.8022 12.5442 24.7544 12.5074L21.5492 10.0418C21.1574 9.74038 21.2363 9.12835 21.6918 8.93625L25.4178 7.36479C25.4734 7.34134 25.5166 7.29558 25.5369 7.23871L26.8913 3.42845C27.0569 2.96267 27.6634 2.84863 27.9868 3.22246L30.6328 6.28051C30.6723 6.32615 30.7291 6.3531 30.7895 6.35475L34.8318 6.4655C35.326 6.47904 35.6218 7.0206 35.3662 7.44374L33.2755 10.9052C33.2443 10.9568 33.2363 11.0192 33.2533 11.0771L34.3971 14.9558ZM33.7296 15.3477C33.8901 15.3851 34.0313 15.2355 33.9847 15.0775L32.8409 11.1988C32.7897 11.0251 32.8138 10.8379 32.9074 10.6829L34.9982 7.22142C35.0834 7.08037 34.9848 6.89986 34.82 6.89534L30.7777 6.78459C30.5967 6.77963 30.4261 6.6988 30.3076 6.56186L27.6617 3.50381C27.5538 3.3792 27.3517 3.41722 27.2965 3.57248L25.942 7.38273C25.8814 7.55336 25.7518 7.69063 25.5849 7.761L21.8589 9.33245C21.7071 9.39648 21.6808 9.6005 21.8114 9.70097L25.0166 12.1666C25.1601 12.277 25.2506 12.4427 25.266 12.6231L25.6091 16.6524C25.6231 16.8165 25.809 16.9046 25.9449 16.8114L29.2803 14.525C29.4297 14.4226 29.6152 14.3878 29.7915 14.4289L33.7296 15.3477Z" fill="#D14EFF"/>
<path opacity="0.73011" fill-rule="evenodd" clip-rule="evenodd" d="M23.0481 152.349C23.5283 152.467 23.7034 153.059 23.3643 153.418L21.3697 155.535C21.3283 155.579 21.3073 155.638 21.3118 155.698L21.5278 158.598C21.5646 159.091 21.0559 159.441 20.609 159.229L17.9798 157.986C17.9252 157.961 17.8623 157.959 17.8064 157.982L15.115 159.083C14.6575 159.271 14.1681 158.895 14.2309 158.405L14.6006 155.52C14.6082 155.46 14.5904 155.4 14.5514 155.354L12.6719 153.134C12.3524 152.757 12.5587 152.176 13.0444 152.084L15.902 151.544C15.9614 151.533 16.0132 151.497 16.045 151.446L17.5749 148.973C17.8349 148.552 18.4518 148.569 18.6892 149.002L20.0856 151.553C20.1146 151.606 20.1645 151.644 20.2232 151.659L23.0481 152.349ZM23.0514 153.123C23.1644 153.004 23.1061 152.806 22.946 152.767L20.121 152.076C19.9451 152.033 19.7954 151.918 19.7085 151.76L18.312 149.209C18.2329 149.064 18.0272 149.059 17.9406 149.199L16.4107 151.672C16.3154 151.826 16.1598 151.933 15.9819 151.967L13.1242 152.506C12.9623 152.537 12.8936 152.731 13.0001 152.857L14.8795 155.076C14.9965 155.214 15.0501 155.395 15.0271 155.575L14.6574 158.459C14.6365 158.623 14.7996 158.748 14.9521 158.686L17.6436 157.584C17.8111 157.515 17.9998 157.52 18.1636 157.598L20.7927 158.841C20.9417 158.911 21.1113 158.795 21.099 158.63L20.883 155.73C20.8695 155.55 20.9326 155.372 21.0568 155.24L23.0514 153.123Z" fill="#D14EFF"/>
<path opacity="0.902331" d="M172.939 100.608C173.156 100.856 173.026 101.246 172.703 101.313L168.744 102.134C168.625 102.159 168.523 102.232 168.461 102.335L166.395 105.812C166.227 106.095 165.815 106.091 165.652 105.805L163.648 102.293C163.588 102.188 163.487 102.113 163.369 102.087L159.424 101.196C159.103 101.123 158.979 100.731 159.201 100.487L161.922 97.4955C162.003 97.4062 162.043 97.2869 162.032 97.1667L161.66 93.14C161.63 92.8118 161.965 92.5729 162.265 92.7085L165.951 94.3718C166.061 94.4214 166.187 94.4225 166.298 94.3748L170.013 92.7769C170.315 92.6466 170.646 92.8914 170.61 93.219L170.167 97.2385C170.154 97.3585 170.192 97.4785 170.271 97.5692L172.939 100.608Z" fill="#D14EFF"/>
<path opacity="0.370759" d="M5.04206 64.0931C5.14139 63.7789 5.54277 63.6886 5.76708 63.93L7.40511 65.693C7.48728 65.7815 7.60285 65.8313 7.72357 65.8303L10.13 65.8111C10.4596 65.8084 10.6694 66.1623 10.5092 66.4502L9.33861 68.5529C9.27989 68.6583 9.26822 68.7837 9.30644 68.8982L10.0684 71.1809C10.1727 71.4935 9.90108 71.8024 9.57769 71.739L7.21623 71.2755C7.09777 71.2522 6.97499 71.2798 6.87789 71.3516L4.94236 72.7816C4.6773 72.9775 4.29952 72.8146 4.25995 72.4874L3.97103 70.0983C3.95653 69.9785 3.89232 69.8702 3.79409 69.8L1.83593 68.4012C1.56777 68.2096 1.60593 67.8 1.90487 67.6612L4.08776 66.6482C4.19726 66.5973 4.28036 66.5028 4.31675 66.3877L5.04206 64.0931Z" fill="#D14EFF"/>
<path opacity="0.806242" d="M30.2417 109.342C30.0758 109.627 29.6644 109.627 29.4986 109.342L27.4632 105.848C27.4024 105.744 27.3006 105.67 27.1826 105.644L23.2304 104.788C22.9083 104.719 22.7811 104.327 23.0007 104.082L25.695 101.066C25.7754 100.976 25.8143 100.856 25.8021 100.736L25.3947 96.7131C25.3615 96.3852 25.6943 96.1434 25.9959 96.2763L29.6964 97.9068C29.8069 97.9555 29.9327 97.9555 30.0432 97.9068L33.7436 96.276C34.0452 96.1431 34.378 96.3849 34.3448 96.7128L33.9376 100.736C33.9255 100.856 33.9643 100.976 34.0448 101.066L36.7393 104.081C36.9588 104.327 36.8317 104.718 36.5096 104.788L32.5574 105.644C32.4394 105.67 32.3376 105.744 32.2769 105.848L30.2417 109.342Z" fill="#D14EFF"/>
<path opacity="0.547916" d="M106.669 14.9129C106.342 14.9533 106.093 14.6259 106.219 14.3215L107.768 10.5858C107.814 10.4743 107.811 10.3485 107.76 10.2391L106.048 6.57561C105.908 6.27705 106.143 5.93895 106.471 5.96488L110.502 6.28306C110.623 6.29256 110.742 6.25103 110.83 6.16862L113.785 3.40814C114.026 3.18318 114.42 3.30161 114.497 3.62208L115.44 7.55441C115.468 7.6718 115.544 7.77195 115.65 7.83039L119.188 9.7878C119.477 9.94732 119.486 10.3586 119.205 10.5307L115.756 12.6429C115.653 12.7059 115.582 12.8094 115.559 12.9279L114.791 16.8981C114.728 17.2217 114.34 17.3574 114.089 17.1433L111.015 14.5164C110.923 14.438 110.802 14.4017 110.683 14.4165L106.669 14.9129Z" fill="#D14EFF"/>
<path opacity="0.392959" d="M109.334 184.751C109.191 185.048 108.781 185.08 108.593 184.81L106.286 181.488C106.218 181.389 106.11 181.324 105.99 181.308L101.983 180.769C101.656 180.725 101.498 180.345 101.698 180.083L104.143 176.862C104.216 176.766 104.246 176.644 104.224 176.525L103.498 172.547C103.439 172.223 103.751 171.955 104.062 172.064L107.881 173.395C107.995 173.434 108.12 173.424 108.226 173.367L111.785 171.447C112.076 171.291 112.427 171.505 112.42 171.835L112.334 175.878C112.331 175.998 112.379 176.115 112.467 176.198L115.393 178.989C115.631 179.217 115.535 179.617 115.22 179.712L111.348 180.88C111.233 180.915 111.137 180.996 111.085 181.105L109.334 184.751Z" fill="#D14EFF"/>
<defs>
<filter id="filter0_b_2_56" x="96.25" y="102.83" width="70.2" height="70.2" filterUnits="userSpaceOnUse" color-interpolation-filters="sRGB">
<feFlood flood-opacity="0" result="BackgroundImageFix"/>
<feGaussianBlur in="BackgroundImageFix" stdDeviation="2.5"/>
<feComposite in2="SourceAlpha" operator="in" result="effect1_backgroundBlur_2_56"/>
<feBlend mode="normal" in="SourceGraphic" in2="effect1_backgroundBlur_2_56" result="shape"/>
</filter>
<linearGradient id="paint0_linear_2_56" x1="101.68" y1="63.97" x2="54.81" y2="52.36" gradientUnits="userSpaceOnUse">
<stop stop-color="#93B0FF"/>
<stop offset="1" stop-color="#5694FF"/>
</linearGradient>
<linearGradient id="paint1_linear_2_56" x1="60.8753" y1="81.3851" x2="69.509" y2="30.992" gradientUnits="userSpaceOnUse">
<stop stop-color="#FF8A70"/>
<stop offset="1" stop-color="#FFADAD"/>
</linearGradient>
<linearGradient id="paint2_linear_2_56" x1="84.2648" y1="70.85" x2="91.1448" y2="163.085" gradientUnits="userSpaceOnUse">
<stop stop-color="#759CFF"/>
<stop offset="1" stop-color="#70BAFF"/>
</linearGradient>
<linearGradient id="paint3_linear_2_56" x1="84.2648" y1="70.85" x2="84.2648" y2="157.28" gradientUnits="userSpaceOnUse">
<stop stop-color="#FFAAAA"/>
<stop offset="1" stop-color="#FF9A61"/>
</linearGradient>
<linearGradient id="paint4_linear_2_56" x1="88.9948" y1="68.27" x2="88.9948" y2="154.7" gradientUnits="userSpaceOnUse">
<stop stop-color="#FFAAAA"/>
<stop offset="1" stop-color="#FFAD61"/>
</linearGradient>
<linearGradient id="paint5_linear_2_56" x1="73.2998" y1="117.88" x2="94.0026" y2="128.77" gradientUnits="userSpaceOnUse">
<stop stop-color="#FF7A00"/>
<stop offset="1" stop-color="#FD5050"/>
</linearGradient>
</defs>
</svg>
